<svg width="90" height="88" viewBox="0 0 90 88" fill="none" xmlns="http://www.w3.org/2000/svg">
<path d="M75.9692 34.0999H62.6992V75.1899H75.9692V34.0999Z" fill="#356AED"/>
<path d="M71.7191 87.26H18.2991C8.63906 87.26 0.789062 79.59 0.789062 70.17V18.04C0.789062 8.61995 8.64906 0.949951 18.2991 0.949951H71.7291C81.3891 0.949951 89.2391 8.61995 89.2391 18.04V70.17C89.2391 79.59 81.3791 87.26 71.7291 87.26H71.7191ZM18.4991 3.83995C10.3591 3.83995 3.73906 10.3 3.73906 18.24V69.97C3.73906 77.91 10.3591 84.37 18.4991 84.37H71.5091C79.6491 84.37 86.2691 77.91 86.2691 69.97V18.24C86.2691 10.3 79.6491 3.83995 71.5091 3.83995H18.4991Z" fill="#356AED"/>
<path d="M55.4909 34.2299L37.5109 51.7799H55.4909V74.7799H42.3909V63.6999H20.7009C15.1009 63.6999 12.2909 57.0899 16.2509 53.2299L55.4909 14.95V34.2299Z" fill="#356AED"/>
<path d="M62.4707 17.4999V25.1699C62.4707 26.5799 63.6407 27.7299 65.0907 27.7299H72.9507C74.4007 27.7299 75.5707 26.5899 75.5707 25.1699V17.4999C75.5707 16.0899 74.4007 14.9399 72.9507 14.9399H65.0907C63.6407 14.9399 62.4707 16.0799 62.4707 17.4999Z" fill="#356AED"/>
</svg>
