<svg width="2160" height="184" viewBox="0 0 2160 184" fill="none" xmlns="http://www.w3.org/2000/svg">
<path d="M2055.3 46.7998H2074.8L2055.84 115.77H2036.46L2055.3 46.7998Z" fill="#356AED"/>
<path d="M2034.57 122.64H2054.1L2050.2 137.04H2030.61L2034.57 122.64Z" fill="#356AED"/>
<path d="M1985.01 137.04H1965.48L1969.38 122.64H1988.97L1985.01 137.04Z" fill="#356AED"/>
<path d="M1989.96 46.7998H2009.25L1990.26 115.77H1971.12L1989.96 46.7998Z" fill="#356AED"/>
<path d="M2017.56 137.04H1998.03L2017.02 68.0698H2036.4L2017.56 137.04Z" fill="#356AED"/>
<path d="M2038.29 61.1998H2018.76L2022.63 46.7998H2042.25L2038.29 61.1998Z" fill="#356AED"/>
<path d="M2082.66 137.04H2063.16L2082.15 68.0698H2101.53L2082.66 137.04Z" fill="#356AED"/>
<path d="M2103.39 61.1998H2083.86L2087.76 46.7998H2107.38L2103.39 61.1998Z" fill="#356AED"/>
<path d="M0 46.9502H1976.28L1951.56 137.04H0V46.9502Z" fill="#356AED"/>
<path d="M96.1093 72.5322C96.8569 71.2842 97.8715 70.3242 99.1531 69.6282C100.435 68.9442 101.863 68.5962 103.412 68.5962C104.813 68.5962 106.042 68.8482 107.096 69.3402C108.151 69.8322 108.978 70.4562 109.606 71.1882V68.8602H113.33V84.9042H109.606V82.5162C108.978 83.2722 108.124 83.9082 107.043 84.4122C105.961 84.9162 104.733 85.1682 103.345 85.1682C101.81 85.1682 100.408 84.8082 99.1264 84.1002C97.8581 83.3922 96.8436 82.3962 96.096 81.1242C95.3484 79.8522 94.9746 78.4122 94.9746 76.8042C94.9746 75.1962 95.3484 73.7682 96.096 72.5202L96.1093 72.5322ZM108.845 73.9842C108.338 73.1682 107.67 72.5442 106.856 72.1242C106.042 71.6922 105.147 71.4882 104.199 71.4882C103.251 71.4882 102.357 71.6922 101.543 72.1122C100.728 72.5322 100.061 73.1442 99.5536 73.9482C99.0463 74.7522 98.7926 75.7122 98.7926 76.8162C98.7926 77.9202 99.0463 78.8922 99.5536 79.7322C100.061 80.5722 100.728 81.2082 101.556 81.6402C102.384 82.0722 103.265 82.3002 104.199 82.3002C105.134 82.3002 106.042 82.0842 106.856 81.6642C107.67 81.2442 108.338 80.6082 108.845 79.7802C109.352 78.9522 109.606 77.9922 109.606 76.8762C109.606 75.7602 109.352 74.8122 108.845 73.9962V73.9842Z" fill="white"/>
<path d="M124.45 69.3522C125.532 68.8482 126.747 68.5962 128.108 68.5962C129.67 68.5962 131.085 68.9442 132.367 69.6282C133.648 70.3122 134.663 71.2842 135.397 72.5322C136.131 73.7802 136.505 75.2082 136.505 76.8162C136.505 78.4242 136.131 79.8642 135.397 81.1362C134.663 82.4082 133.648 83.4042 132.367 84.1122C131.085 84.8202 129.657 85.1802 128.108 85.1802C126.747 85.1802 125.532 84.9282 124.477 84.4362C123.423 83.9442 122.555 83.3202 121.887 82.5882V117.676H118.189V68.8602H121.887V71.2242C122.515 70.4922 123.369 69.8682 124.45 69.3642V69.3522ZM131.98 73.9482C131.472 73.1442 130.805 72.5322 129.977 72.1122C129.15 71.6922 128.255 71.4882 127.307 71.4882C126.359 71.4882 125.492 71.7042 124.664 72.1242C123.836 72.5442 123.169 73.1682 122.662 73.9842C122.154 74.8002 121.901 75.7602 121.901 76.8642C121.901 77.9682 122.154 78.9402 122.662 79.7682C123.169 80.5962 123.836 81.2202 124.664 81.6522C125.492 82.0842 126.373 82.2882 127.307 82.2882C128.242 82.2882 129.15 82.0722 129.977 81.6282C130.805 81.1962 131.472 80.5602 131.98 79.7202C132.487 78.8802 132.741 77.9202 132.741 76.8042C132.741 75.6882 132.487 74.7402 131.98 73.9362V73.9482Z" fill="white"/>
<path d="M146.423 69.3522C147.504 68.8482 148.719 68.5962 150.081 68.5962C151.643 68.5962 153.058 68.9442 154.34 69.6282C155.621 70.3122 156.636 71.2842 157.37 72.5322C158.104 73.7802 158.478 75.2082 158.478 76.8162C158.478 78.4242 158.104 79.8642 157.37 81.1362C156.636 82.4082 155.621 83.4042 154.34 84.1122C153.058 84.8202 151.63 85.1802 150.081 85.1802C148.719 85.1802 147.504 84.9282 146.45 84.4362C145.395 83.9442 144.527 83.3202 143.86 82.5882V92.5482H140.162V68.8602H143.86V71.2242C144.487 70.4922 145.342 69.8682 146.423 69.3642V69.3522ZM153.952 73.9482C153.445 73.1442 152.778 72.5322 151.95 72.1122C151.122 71.6922 150.228 71.4882 149.28 71.4882C148.332 71.4882 147.464 71.7042 146.637 72.1242C145.809 72.5562 145.142 73.1682 144.634 73.9842C144.127 74.8002 143.873 75.7602 143.873 76.8642C143.873 77.9682 144.127 78.9402 144.634 79.7682C145.142 80.5962 145.809 81.2202 146.637 81.6522C147.464 82.0842 148.345 82.2882 149.28 82.2882C150.214 82.2882 151.122 82.0722 151.95 81.6282C152.778 81.1842 153.445 80.5602 153.952 79.7202C154.46 78.8802 154.713 77.9202 154.713 76.8042C154.713 75.6882 154.46 74.7402 153.952 73.9362V73.9482Z" fill="white"/>
<path d="M164.847 84.4842C163.739 84.0282 162.858 83.4042 162.203 82.6242C161.549 81.8322 161.216 80.9562 161.162 79.9842H164.98C165.047 80.6682 165.407 81.2322 166.061 81.6882C166.716 82.1442 167.543 82.3722 168.545 82.3722C169.546 82.3722 170.387 82.1922 170.961 81.8322C171.535 81.4722 171.815 81.0162 171.815 80.4522C171.815 79.8522 171.495 79.4082 170.854 79.1082C170.213 78.8082 169.212 78.4962 167.824 78.1482C166.489 77.8122 165.394 77.5002 164.553 77.1882C163.712 76.8762 162.978 76.3962 162.364 75.7602C161.749 75.1242 161.442 74.2722 161.442 73.2282C161.442 72.3762 161.723 71.5962 162.283 70.8882C162.844 70.1802 163.645 69.6162 164.7 69.2082C165.754 68.8002 166.956 68.5962 168.318 68.5962C170.347 68.5962 171.989 69.0522 173.23 69.9762C174.472 70.9002 175.139 72.1602 175.219 73.7442H171.521C171.455 73.0242 171.134 72.4482 170.547 72.0282C169.96 71.6082 169.172 71.3922 168.184 71.3922C167.196 71.3922 166.462 71.5602 165.955 71.8842C165.447 72.2082 165.18 72.6522 165.18 73.1922C165.18 73.6242 165.354 73.9842 165.701 74.2722C166.048 74.5602 166.462 74.7882 166.969 74.9562C167.477 75.1242 168.197 75.3282 169.172 75.5802C170.467 75.8922 171.535 76.2042 172.363 76.5282C173.19 76.8522 173.911 77.3202 174.512 77.9442C175.113 78.5682 175.433 79.3962 175.446 80.4162C175.446 81.3282 175.166 82.1442 174.605 82.8642C174.045 83.5842 173.244 84.1482 172.229 84.5562C171.214 84.9642 170 85.1682 168.611 85.1682C167.223 85.1682 165.955 84.9402 164.833 84.4842H164.847Z" fill="white"/>
<path d="M82.7197 117.004C81.6117 116.548 80.7306 115.924 80.0764 115.144C79.4223 114.352 79.0886 113.476 79.0352 112.504H82.8532C82.9199 113.188 83.2804 113.752 83.9345 114.208C84.5886 114.664 85.4163 114.892 86.4175 114.892C87.4188 114.892 88.2598 114.712 88.8338 114.352C89.4079 113.992 89.6882 113.536 89.6882 112.972C89.6882 112.372 89.3678 111.928 88.727 111.628C88.0863 111.328 87.085 111.016 85.6967 110.668C84.3617 110.332 83.267 110.02 82.426 109.708C81.585 109.396 80.8507 108.916 80.2366 108.28C79.6225 107.644 79.3155 106.792 79.3155 105.748C79.3155 104.896 79.5958 104.116 80.1565 103.408C80.7172 102.7 81.5182 102.136 82.5728 101.728C83.6275 101.32 84.8289 101.116 86.1906 101.116C88.2198 101.116 89.8618 101.572 91.1033 102.496C92.3448 103.42 93.0123 104.68 93.0924 106.264H89.3945C89.3278 105.544 89.0074 104.968 88.42 104.548C87.8326 104.128 87.045 103.912 86.0571 103.912C85.0692 103.912 84.335 104.08 83.8277 104.404C83.3204 104.728 83.0534 105.172 83.0534 105.712C83.0534 106.144 83.227 106.504 83.5741 106.792C83.9212 107.08 84.335 107.308 84.8423 107.476C85.3496 107.644 86.0705 107.848 87.045 108.1C88.3399 108.412 89.4079 108.724 90.2356 109.048C91.0632 109.372 91.7841 109.84 92.3849 110.464C92.9856 111.088 93.306 111.916 93.3194 112.936C93.3194 113.848 93.039 114.664 92.4783 115.384C91.9176 116.104 91.1166 116.668 90.1021 117.076C89.0875 117.484 87.8727 117.688 86.4843 117.688C85.0959 117.688 83.8277 117.46 82.7063 117.004H82.7197Z" fill="white"/>
<path d="M100.486 116.656C99.1248 115.972 98.0568 115 97.2825 113.74C96.5082 112.48 96.1211 111.04 96.1211 109.384C96.1211 107.728 96.5216 106.312 97.3226 105.04C98.1236 103.768 99.2182 102.808 100.593 102.124C101.982 101.44 103.517 101.104 105.226 101.104C106.934 101.104 108.483 101.44 109.858 102.124C111.246 102.808 112.328 103.78 113.129 105.04C113.93 106.3 114.33 107.752 114.33 109.384C114.33 111.016 113.916 112.456 113.102 113.728C112.288 115 111.166 115.972 109.751 116.656C108.336 117.34 106.774 117.688 105.065 117.688C103.357 117.688 101.861 117.34 100.5 116.656H100.486ZM107.735 114.196C108.563 113.788 109.244 113.176 109.765 112.36C110.285 111.544 110.539 110.56 110.539 109.384C110.539 108.208 110.285 107.236 109.791 106.432C109.297 105.628 108.63 105.016 107.815 104.608C107.001 104.2 106.107 103.996 105.159 103.996C104.211 103.996 103.33 104.2 102.516 104.608C101.701 105.016 101.06 105.628 100.593 106.432C100.126 107.236 99.8857 108.22 99.8857 109.384C99.8857 111.112 100.38 112.444 101.354 113.392C102.329 114.34 103.57 114.808 105.065 114.808C106.013 114.808 106.908 114.604 107.735 114.196Z" fill="white"/>
<path d="M142.713 101.38V117.424H139.015V115.528C138.428 116.188 137.667 116.704 136.732 117.088C135.798 117.472 134.796 117.652 133.728 117.652C132.327 117.652 131.072 117.388 129.95 116.86C128.842 116.332 127.961 115.564 127.321 114.532C126.68 113.5 126.359 112.264 126.359 110.8V101.368H130.017V110.308C130.017 111.748 130.418 112.852 131.219 113.62C132.02 114.388 133.114 114.772 134.489 114.772C135.864 114.772 136.972 114.388 137.773 113.62C138.588 112.852 138.988 111.748 138.988 110.308V101.368H142.686L142.713 101.38Z" fill="white"/>
<path d="M151.885 104.092V112.972C151.885 113.572 152.045 114.004 152.352 114.268C152.659 114.532 153.206 114.664 153.954 114.664H156.223V117.436H153.313C151.644 117.436 150.376 117.088 149.495 116.392C148.614 115.696 148.16 114.556 148.16 112.984V104.104H146.051V101.392H148.16V97.396H151.885V101.392H156.223V104.104H151.885V104.092Z" fill="white"/>
<path d="M159.827 98.6438C159.373 98.2358 159.146 97.7318 159.146 97.1318C159.146 96.5318 159.373 96.0278 159.827 95.6198C160.281 95.2118 160.842 95.0078 161.509 95.0078C162.177 95.0078 162.711 95.2118 163.165 95.6198C163.619 96.0278 163.846 96.5318 163.846 97.1318C163.846 97.7318 163.619 98.2358 163.165 98.6438C162.711 99.0518 162.164 99.2558 161.509 99.2558C160.855 99.2558 160.281 99.0518 159.827 98.6438ZM163.325 101.38V117.424H159.627V101.38H163.325Z" fill="white"/>
<path d="M171.361 116.656C170 115.972 168.932 115 168.158 113.74C167.383 112.492 166.996 111.04 166.996 109.384C166.996 107.728 167.397 106.312 168.198 105.04C168.999 103.78 170.093 102.808 171.468 102.124C172.857 101.44 174.392 101.104 176.101 101.104C177.809 101.104 179.358 101.44 180.733 102.124C182.108 102.808 183.203 103.78 184.004 105.04C184.805 106.3 185.205 107.752 185.205 109.384C185.205 111.016 184.791 112.456 183.977 113.728C183.163 114.988 182.041 115.972 180.626 116.656C179.211 117.34 177.649 117.688 175.94 117.688C174.232 117.688 172.736 117.34 171.375 116.656H171.361ZM178.61 114.196C179.438 113.788 180.119 113.176 180.64 112.36C181.16 111.544 181.414 110.56 181.414 109.384C181.414 108.208 181.16 107.236 180.666 106.432C180.172 105.628 179.505 105.016 178.69 104.608C177.876 104.2 176.982 103.996 176.034 103.996C175.086 103.996 174.205 104.2 173.391 104.608C172.576 105.016 171.935 105.628 171.468 106.432C171.001 107.236 170.761 108.22 170.761 109.384C170.761 111.112 171.255 112.444 172.229 113.392C173.217 114.328 174.445 114.808 175.94 114.808C176.888 114.808 177.783 114.604 178.61 114.196Z" fill="white"/>
<path d="M201.639 101.908C202.747 102.436 203.614 103.204 204.242 104.236C204.869 105.268 205.176 106.504 205.176 107.968V117.436H201.518V108.46C201.518 107.02 201.118 105.916 200.317 105.148C199.516 104.38 198.421 103.996 197.046 103.996C195.671 103.996 194.563 104.38 193.762 105.148C192.961 105.916 192.547 107.02 192.547 108.46V117.436H188.85V101.392H192.547V103.228C193.148 102.568 193.922 102.052 194.87 101.68C195.805 101.308 196.806 101.128 197.874 101.128C199.276 101.128 200.531 101.392 201.652 101.92L201.639 101.908Z" fill="white"/>
<path d="M212.599 117.004C211.491 116.548 210.609 115.924 209.955 115.144C209.301 114.364 208.967 113.476 208.914 112.504H212.732C212.799 113.188 213.159 113.752 213.813 114.208C214.468 114.664 215.295 114.892 216.296 114.892C217.298 114.892 218.139 114.712 218.713 114.352C219.287 113.992 219.567 113.536 219.567 112.972C219.567 112.372 219.247 111.928 218.606 111.628C217.965 111.328 216.964 111.016 215.576 110.668C214.241 110.332 213.146 110.02 212.305 109.708C211.464 109.396 210.73 108.916 210.116 108.28C209.501 107.644 209.194 106.792 209.194 105.748C209.194 104.896 209.475 104.116 210.035 103.408C210.596 102.7 211.397 102.136 212.452 101.728C213.506 101.32 214.708 101.116 216.07 101.116C218.099 101.116 219.741 101.572 220.982 102.496C222.224 103.42 222.891 104.68 222.971 106.264H219.273C219.207 105.544 218.886 104.968 218.299 104.548C217.712 104.128 216.924 103.912 215.936 103.912C214.948 103.912 214.214 104.08 213.707 104.404C213.199 104.728 212.932 105.172 212.932 105.712C212.932 106.144 213.106 106.504 213.453 106.792C213.8 107.08 214.214 107.308 214.721 107.476C215.228 107.644 215.949 107.848 216.924 108.1C218.219 108.412 219.287 108.724 220.114 109.048C220.942 109.372 221.663 109.84 222.264 110.464C222.865 111.088 223.185 111.916 223.198 112.936C223.198 113.848 222.918 114.664 222.357 115.384C221.797 116.104 220.996 116.668 219.981 117.076C218.966 117.484 217.752 117.688 216.363 117.688C214.975 117.688 213.707 117.46 212.585 117.004H212.599Z" fill="white"/>
<path d="M78.8336 68.3198H74.7352L66.1113 79.4438V81.8678H75.1891V85.2998H78.8336V81.8678H81.1698V78.8918H78.8336V68.3198ZM70.5835 78.8918L75.3093 72.5318V78.8918H70.5835Z" fill="white"/>
<path d="M84.9342 71.2238C85.5482 71.2238 86.0822 71.0318 86.5094 70.6358C86.9366 70.2518 87.1636 69.7718 87.1636 69.1958C87.1636 68.6198 86.95 68.1518 86.5094 67.7558C85.6417 66.9758 84.1866 66.9878 83.3322 67.7558C82.905 68.1398 82.6914 68.6318 82.6914 69.1958C82.6914 69.7598 82.905 70.2398 83.3455 70.6358C83.7727 71.0198 84.3067 71.2238 84.9475 71.2238H84.9342Z" fill="white"/>
<path d="M86.7509 73.0239H83.0664V85.2999H86.7509V73.0239Z" fill="white"/>
</svg>
