<?xml version="1.0" encoding="UTF-8"?>
<svg id="Layer_1" xmlns="http://www.w3.org/2000/svg" version="1.1" viewBox="0 0 102.02 98.21">
  <!-- Generator: Adobe Illustrator 29.6.0, SVG Export Plug-In . SVG Version: 2.1.1 Build 207)  -->
  <defs>
    <style>
      .st0 {
        fill: #356aed;
      }
    </style>
  </defs>
  <g>
    <rect class="st0" x="68.7" y="39.1" width="13.27" height="41.09"/>
    <path class="st0" d="M77.72,92.26H24.3c-9.66,0-17.51-7.67-17.51-17.09V23.04c0-9.42,7.86-17.09,17.51-17.09h53.43c9.66,0,17.51,7.67,17.51,17.09v52.13c0,9.42-7.86,17.09-17.51,17.09ZM24.5,8.84c-8.14,0-14.76,6.46-14.76,14.4v51.73c0,7.94,6.62,14.4,14.76,14.4h53.01c8.14,0,14.76-6.46,14.76-14.4V23.24c0-7.94-6.62-14.4-14.76-14.4H24.5Z"/>
  </g>
  <path class="st0" d="M61.49,39.23l-17.98,17.55h17.98v23h-13.1v-11.08h-21.69c-5.6,0-8.41-6.61-4.45-10.47L61.49,19.95v19.28Z"/>
  <path class="st0" d="M68.47,22.5v7.67c0,1.41,1.17,2.56,2.62,2.56h7.86c1.45,0,2.62-1.14,2.62-2.56v-7.67c0-1.41-1.17-2.56-2.62-2.56h-7.86c-1.45,0-2.62,1.14-2.62,2.56Z"/>
</svg>